<svg width="24" height="24" viewBox="0 0 24 24" fill="none" xmlns="http://www.w3.org/2000/svg">
<g clip-path="url(#clip0_487_377)">
<path d="M0 9.82509C0 9.67509 0 9.52509 0 9.33759C0.1875 8.66259 0.6375 8.32509 1.35 8.25009C3.4875 8.06259 5.625 7.87509 7.7625 7.68759C7.9875 7.65009 8.1375 7.61259 8.2125 7.35009C9.075 5.32509 9.9375 3.33759 10.8 1.31259C10.875 1.12509 10.9875 0.975092 11.1 0.825092C11.775 0.150092 12.825 0.375092 13.2 1.27509C14.025 3.18759 14.85 5.10009 15.6375 7.05009C15.825 7.46259 16.0125 7.65009 16.4625 7.68759C18.15 7.80009 19.8375 7.98759 21.4875 8.13759C21.9375 8.17509 22.3875 8.21259 22.8 8.25009C23.4375 8.32509 23.7375 8.73759 23.925 9.30009C23.925 9.45009 23.925 9.60009 23.925 9.78759C23.775 10.0501 23.6625 10.3501 23.4375 10.5376C21.7875 12.0001 20.1 13.4626 18.45 14.9251C18.375 15.0751 18.3375 15.1876 18.375 15.3751C18.8625 17.5126 19.35 19.6876 19.8375 21.8251C19.9875 22.4251 19.8 22.9501 19.35 23.2501C18.8625 23.5876 18.375 23.5501 17.85 23.2501C15.975 22.1251 14.0625 21.0001 12.1875 19.8376C12.0375 19.7251 11.925 19.7626 11.7375 19.8376C9.8625 20.9626 7.95 22.0876 6.075 23.2126C5.5875 23.5126 5.0625 23.5501 4.575 23.2126C4.125 22.9126 3.975 22.3876 4.0875 21.7876C4.575 19.6126 5.0625 17.4751 5.55 15.3001C5.5875 15.1501 5.55 15.0376 5.4375 14.9251C3.825 13.5376 2.25 12.1501 0.675 10.7626C0.4125 10.5376 0.1125 10.2376 0 9.82509Z" fill="#ECECEC"/>
</g>
<defs>
<clipPath id="clip0_487_377">
<rect width="24" height="24" fill="white"/>
</clipPath>
</defs>
</svg>
